/* XPM */
static char * help_xpm[] = {
"24 24 191 2",
"  	c None",
". 	c #060A14",
"+ 	c #3A86CC",
"@ 	c #7AC6F4",
"# 	c #56A6EC",
"$ 	c #224A6C",
"% 	c #76AEE4",
"& 	c #82929C",
"* 	c #4296DC",
"= 	c #2E6A9C",
"- 	c #C2DEF4",
"; 	c #569EDC",
"> 	c #6AB6F4",
", 	c #66A6E4",
"' 	c #122A3C",
") 	c #9ECAF4",
"! 	c #469EE4",
"~ 	c #6A6A6C",
"{ 	c #367AB4",
"] 	c #4A4E54",
"^ 	c #7EBAEC",
"/ 	c #265A84",
"( 	c #E2EEFC",
"_ 	c #AED6F4",
": 	c #4E96DC",
"< 	c #024284",
"[ 	c #3E8ED4",
"} 	c #5AAEEC",
"| 	c #66AEEC",
"1 	c #92BADC",
"2 	c #0A1A24",
"3 	c #5EA6E4",
"4 	c #4A96DC",
"5 	c #3272AC",
"6 	c #CEE2F4",
"7 	c #5E9EDC",
"8 	c #4E9EEC",
"9 	c #3A82C4",
"0 	c #92C6F4",
"a 	c #2A6294",
"b 	c #1E3E5C",
"c 	c #22527C",
"d 	c #56A2E4",
"e 	c #6ABEEC",
"f 	c #AACEF4",
"g 	c #B6DEF4",
"h 	c #4692DC",
"i 	c #8EAECC",
"j 	c #429AE4",
"k 	c #367EBC",
"l 	c #7AC2F4",
"m 	c #6EAEEC",
"n 	c #0E2234",
"o 	c #5EAAEC",
"p 	c #D2EAFC",
"q 	c #92CEF4",
"r 	c #468AC4",
"s 	c #326EA4",
"t 	c #66AAE4",
"u 	c #2A363C",
"v 	c #9ED2F4",
"w 	c #82BAF4",
"x 	c #FEFEFC",
"y 	c #AEDAF4",
"z 	c #3E92D4",
"A 	c #8EC2F4",
"B 	c #4EA2EC",
"C 	c #96C6F4",
"D 	c #363A3C",
"E 	c #3A8ACC",
"F 	c #224E74",
"G 	c #76B6F4",
"H 	c #5A9EDC",
"I 	c #72BAF4",
"J 	c #16324C",
"K 	c #46A2EC",
"L 	c #5E7A94",
"M 	c #2A5E8C",
"N 	c #EAF6FC",
"O 	c #4E9AE4",
"P 	c #6AB2F4",
"Q 	c #62A6E4",
"R 	c #3276B4",
"S 	c #2E6694",
"T 	c #1E466C",
"U 	c #3A7EBC",
"V 	c #122634",
"W 	c #6AAAE4",
"X 	c #0A161C",
"Y 	c #52AAEC",
"Z 	c #7EB2E4",
"` 	c #8AA2BC",
" .	c #4696DC",
"..	c #326A9C",
"+.	c #BEE2FC",
"@.	c #6EBAF4",
"#.	c #A6CEF4",
"$.	c #4A9EEC",
"%.	c #7ABEF4",
"&.	c #1A3A54",
"*.	c #62B2EC",
"=.	c #6AAEEC",
"-.	c #8ABEEC",
";.	c #4A9AEC",
">.	c #D2E6F4",
",.	c #529EE4",
"'.	c #4282BC",
").	c #265684",
"!.	c #5AA2E4",
"~.	c #72BEF4",
"{.	c #469AE4",
"].	c #DAEAF4",
"^.	c #B2DAF4",
"/.	c #4292D4",
"(.	c #9ACAF4",
"_.	c #727E8C",
":.	c #529ADC",
"<.	c #3676AC",
"[.	c #060E14",
"}.	c #3E86CC",
"|.	c #8ACAF4",
"1.	c #224A74",
"2.	c #76B2EC",
"3.	c #8696AC",
"4.	c #4296E4",
"5.	c #2E6AA4",
"6.	c #569EE4",
"7.	c #6EB6F4",
"8.	c #122A44",
"9.	c #5A626C",
"0.	c #0E1E2C",
"a.	c #62A2E4",
"b.	c #92B2D4",
"c.	c #A2CEF4",
"d.	c #E6F2FC",
"e.	c #5EB2EC",
"f.	c #8ECAF4",
"g.	c #AED2F4",
"h.	c #667A8C",
"i.	c #1E4264",
"j.	c #1A3E5C",
"k.	c #16364C",
"l.	c #2A5A8C",
"m.	c #6EBEF4",
"n.	c #BADEFC",
"o.	c #72AEE4",
"p.	c #86BAEC",
"q.	c #9AC6EC",
"r.	c #3E8AD4",
"s.	c #B2D6F4",
"t.	c #3E82C4",
"u.	c #2E6294",
"v.	c #26527C",
"w.	c #4A92DC",
"x.	c #122234",
"y.	c #62AAEC",
"z.	c #D6EAFC",
"A.	c #A2D2F4",
"B.	c #92C2F4",
"C.	c #52A2EC",
"D.	c #EEF6FC",
"E.	c #22466C",
"F.	c #56AAEC",
"G.	c #C2E2FC",
"H.	c #469EEC",
"I.	c #367ABC",
"J.	c #7EBAF4",
"K.	c #3E8EDC",
"L.	c #5EA6EC",
"M.	c #4A96E4",
"N.	c #56A2EC",
"O.	c #367EC4",
"P.	c #326EAC",
"Q.	c #66AAEC",
"R.	c #224E7C",
"S.	c #5A9EE4",
"T.	c #2A5E94",
"U.	c #62A6EC",
"V.	c #2E669C",
"W.	c #3A7EC4",
"X.	c #12263C",
"Y.	c #6AAAEC",
"Z.	c #6AAEF4",
"`.	c #8ABEF4",
" +	c #D2E6FC",
".+	c #529EEC",
"++	c #469AEC",
"@+	c #B2DAFC",
"#+	c #4292DC",
"$+	c #529AE4",
"%+	c #3676B4",
"' ' ' ' ' ' ' ' ' ' ' ' ' ' ' ' ' ' ' ' ' ' ' ' ",
"' ( ( ( ( +.g +.G.G.+.n.^._ c.(.0 A -.p.p.o.M ' ",
"' 6 @ @ |.v y g p N x x N  +g.G =.U.3 !.H w.W.' ",
"' ^.e ~.|.v @+D.x x x x x x x  +L.K.r.[ [ }.%+' ",
"' q.m.l q A.D.x x 6 6 6 x x x x d.'.I.9 E + %+' ",
"' -.~.l f.+.x x p.3.h.L b.x x x x i S 5 W.9 R ' ",
"' m.m.I %.p x 6 3.u x.E.R A x x x p.F a %+W.R ' ",
"' @.> *.e.6 6 6 3.2 b R 8 y.x x x p.&.v.s k R ' ",
"' @.*.Y ! 1 ` & _.b k o J.`.x x 6 3.' $ = I.R ' ",
"' 7.} K /.<./ F / 9 Z.A (.- x x 6 3.n E.5.I.5 ' ",
"' > F.! z U 5 { 4.Z.B.c. +x x 6 3.] X.F P.k 5 ' ",
"' > # {.* [ K.8 =.A #.( x x 6 3.~ X k.l.%+k 5 ' ",
"' P # H.{.++B | w C z.x x 6 3.~ [.X.1.5.O.W.5 ' ",
"' P # H.++$.# m ^ ) x x 6 3.D . n T V.I.9 9 5 ' ",
"' Z.N.++++;.N.Q.2.s.x 6 p.9.[.n i.u.%+9 + U P.' ",
"' =.C.++j {.d U.Y.f 6 6 p.2 n j.T.{ 9 + + O.P.' ",
"' | .+4.4.{.,.Q W -.q.i 3.J i.l.5 9 + + + k s ' ",
"' Q.,.4.4.M.6.t % % a.r.a F / 5.k + + + + k s ' ",
"' t $+#+#+ .S.W Z p.].6 + ).a 5 W.+ + + 9 I.5.' ",
"' , O #+#+h ; , p.].x x 6 1./ 5.k + + 9 9 I.5.' ",
"' , : K.K.h :.7 p.>.x 6 q.j.c V.I.+ 9 9 9 I.5.' ",
"' 4 + 9 9 t.r r t.t.q.q.R.8.T M P.%+%+R R s a ' ",
"' M s V.V.= ..V.l.$ J V 0.' j.R.l.T.T.M M / < ' ",
"' ' ' ' ' ' ' ' ' ' ' ' ' ' ' ' ' ' ' ' ' ' ' ' "};
